<?xml version="1.0" standalone="no"?><!DOCTYPE svg PUBLIC "-//W3C//DTD SVG 1.1//EN" "http://www.w3.org/Graphics/SVG/1.1/DTD/svg11.dtd"><svg t="1630669829794" class="icon" viewBox="0 0 1024 1024" version="1.1" xmlns="http://www.w3.org/2000/svg" p-id="1953" xmlns:xlink="http://www.w3.org/1999/xlink" width="200" height="200"><defs><style type="text/css"></style></defs><path d="M869 430.87H641.08c88.33-316.55-60.86-332.72-60.86-332.72-63.23 0-50.12 48.52-54.9 56.61 0 154.8-169.45 276.11-169.45 276.11v439c0 43.34 60.86 58.94 84.73 58.94h342.5c32.23 0 58.48-82 58.48-82C926.31 567.2 926.31 484 926.31 484c0-57.77-57.28-53.15-57.28-53.15z" p-id="1954" fill="#d81e06"></path><path d="M98 431.01m32.87 0l130.19 0q32.87 0 32.87 32.87l0 432.06q0 32.87-32.87 32.87l-130.19 0q-32.87 0-32.87-32.87l0-432.06q0-32.87 32.87-32.87Z" p-id="1955" fill="#d81e06"></path></svg>