<?xml version="1.0" standalone="no"?><!DOCTYPE svg PUBLIC "-//W3C//DTD SVG 1.1//EN" "http://www.w3.org/Graphics/SVG/1.1/DTD/svg11.dtd"><svg t="1630673459518" class="icon" viewBox="0 0 1090 1024" version="1.1" xmlns="http://www.w3.org/2000/svg" p-id="2477" xmlns:xlink="http://www.w3.org/1999/xlink" width="212.890625" height="200"><defs><style type="text/css"></style></defs><path d="M1053.283817 435.762645l-341.864089-86.265567-133.811839-271.333566-133.811838 271.333566-341.821447 86.265567 216.495445 211.207788-8.485837 340.925956 267.623677-140.805192 267.623678 140.805192-8.485837-340.925956z" fill="#FFF4AA" p-id="2478"></path><path d="M1085.478826 411.413837a78.717863 78.717863 0 0 0-63.494528-53.38828l-258.199708-37.567951-115.475608-234.277324a78.717863 78.717863 0 0 0-141.3169 0l-115.560894 234.277324-258.157065 37.567951a78.419366 78.419366 0 1 0-43.708456 133.769196l186.986906 182.59474-44.092237 257.688a78.206154 78.206154 0 0 0 31.384803 76.71367 78.717863 78.717863 0 0 0 82.939461 5.927293l230.823289-121.573471 230.865932 121.573471a78.206154 78.206154 0 0 0 82.939461-5.927293c24.220881-17.483382 36.416606-47.205132 31.384803-76.71367l-44.13488-257.688 186.944265-182.59474a78.248797 78.248797 0 0 0 19.871356-80.380916z m-291.375492 235.556596l51.08559 298.28356-267.623677-140.847834-267.581035 140.847834 51.128233-298.28356-216.495445-211.207788 299.179051-43.580529 133.811838-271.333566 133.811839 271.333566 299.221693 43.580529-216.538087 211.207788z" fill="#F4B007" p-id="2479"></path></svg>